<?xml version="1.0" encoding="UTF-8"?>
<svg width="16px" height="16px" viewBox="0 0 16 16" version="1.1" xmlns="http://www.w3.org/2000/svg" xmlns:xlink="http://www.w3.org/1999/xlink">
    <title>icon-dance-tip@1x</title>
    <g id="icon-dance-tip" stroke="none" stroke-width="1" fill="none" fill-rule="evenodd">
        <g id="Group" transform="translate(1.085786, 3.000000)" fill="#000000">
            <path d="M11.9142136,0 C13.0187831,0 13.9142136,0.8954305 13.9142136,2 L13.9142136,9 C13.9142136,10.1045695 13.0187831,11 11.9142136,11 L3.91421356,11 C2.80964406,11 1.91421356,10.1045695 1.91421356,9 L1.91421356,7.417 L0.707106781,6.20960922 L0,5.50250244 L0.707106781,4.79539566 L1.91421356,3.587 L1.91421356,2 C1.91421356,0.945638205 2.73009135,0.0818348781 3.76495122,0.00548573643 L3.91421356,0 L11.9142136,0 Z M11.9142136,1 L3.91421356,1 C3.36192881,1 2.91421356,1.44771525 2.91421356,2 L2.91421356,4.00250244 L1.41421356,5.50250244 L2.91421356,7.00250244 L2.91421356,9 C2.91421356,9.55228475 3.36192881,10 3.91421356,10 L11.9142136,10 C12.4664983,10 12.9142136,9.55228475 12.9142136,9 L12.9142136,2 C12.9142136,1.44771525 12.4664983,1 11.9142136,1 Z" id="Rectangle" fill-rule="nonzero"></path>
            <rect id="Rectangle" x="3.91421356" y="2" width="2" height="2"></rect>
            <rect id="Rectangle" x="3.91421356" y="6" width="2" height="2"></rect>
            <g id="Group-2" transform="translate(6.914214, 2.000000)" fill-rule="nonzero">
                <polygon id="Line" points="5.08333333 0 5.08333333 1 -0.0833333333 1 -0.0833333333 0"></polygon>
                <polygon id="Line" points="5.08333333 2 5.08333333 3 -0.0833333333 3 -0.0833333333 2"></polygon>
                <polygon id="Line" points="5.08333333 4 5.08333333 5 -0.0833333333 5 -0.0833333333 4"></polygon>
                <polygon id="Line" points="5.08333333 6 5.08333333 7 -0.0833333333 7 -0.0833333333 6"></polygon>
            </g>
        </g>
    </g>
</svg>